<svg width="33" height="32" viewBox="0 0 33 32" fill="none" xmlns="http://www.w3.org/2000/svg">
<path d="M26.5126 7.79996L18.5926 3.22663C17.2992 2.47996 15.6992 2.47996 14.3926 3.22663L6.48591 7.79996C5.19258 8.54663 4.39258 9.93329 4.39258 11.44V20.56C4.39258 22.0533 5.19258 23.44 6.48591 24.2L14.4059 28.7733C15.6992 29.52 17.2992 29.52 18.6059 28.7733L26.5259 24.2C27.8192 23.4533 28.6192 22.0666 28.6192 20.56V11.44C28.6059 9.93329 27.8059 8.55996 26.5126 7.79996ZM15.4992 10.3333C15.4992 9.78663 15.9526 9.33329 16.4992 9.33329C17.0459 9.33329 17.4992 9.78663 17.4992 10.3333V17.3333C17.4992 17.88 17.0459 18.3333 16.4992 18.3333C15.9526 18.3333 15.4992 17.88 15.4992 17.3333V10.3333ZM17.7259 22.1733C17.6592 22.3333 17.5659 22.48 17.4459 22.6133C17.1926 22.8666 16.8592 23 16.4992 23C16.3259 23 16.1526 22.96 15.9926 22.8933C15.8192 22.8266 15.6859 22.7333 15.5526 22.6133C15.4326 22.48 15.3392 22.3333 15.2592 22.1733C15.1926 22.0133 15.1659 21.84 15.1659 21.6666C15.1659 21.32 15.2992 20.9733 15.5526 20.72C15.6859 20.6 15.8192 20.5066 15.9926 20.44C16.4859 20.2266 17.0726 20.3466 17.4459 20.72C17.5659 20.8533 17.6592 20.9866 17.7259 21.16C17.7926 21.32 17.8326 21.4933 17.8326 21.6666C17.8326 21.84 17.7926 22.0133 17.7259 22.1733Z" fill="#F4A630"/>
</svg>
